<?xml version="1.0" encoding="UTF-8" standalone="no"?>
<!-- Created with Inkscape (http://www.inkscape.org/) -->

<svg
   xmlns:dc="http://purl.org/dc/elements/1.1/"
   xmlns:cc="http://creativecommons.org/ns#"
   xmlns:rdf="http://www.w3.org/1999/02/22-rdf-syntax-ns#"
   xmlns:svg="http://www.w3.org/2000/svg"
   xmlns="http://www.w3.org/2000/svg"
   xmlns:sodipodi="http://sodipodi.sourceforge.net/DTD/sodipodi-0.dtd"
   xmlns:inkscape="http://www.inkscape.org/namespaces/inkscape"
   version="1.1"
   id="svg2"
   xml:space="preserve"
   width="211.00133"
   height="202.28667"
   viewBox="0 0 211.00133 202.28667"
   sodipodi:docname="Vector Smart Object.ai"
   inkscape:version="0.92.1 r15371"><metadata
     id="metadata8"><rdf:RDF><cc:Work
         rdf:about=""><dc:format>image/svg+xml</dc:format><dc:type
           rdf:resource="http://purl.org/dc/dcmitype/StillImage" /><dc:title></dc:title></cc:Work></rdf:RDF></metadata><defs
     id="defs6"><clipPath
       clipPathUnits="userSpaceOnUse"
       id="clipPath18"><path
         d="M 0,151.715 H 158.251 V 0 H 0 Z"
         id="path16"
         inkscape:connector-curvature="0" /></clipPath></defs><sodipodi:namedview
     pagecolor="#ffffff"
     bordercolor="#666666"
     borderopacity="1"
     objecttolerance="10"
     gridtolerance="10"
     guidetolerance="10"
     inkscape:pageopacity="0"
     inkscape:pageshadow="2"
     inkscape:window-width="1920"
     inkscape:window-height="1057"
     id="namedview4"
     showgrid="false"
     inkscape:zoom="4.1380013"
     inkscape:cx="105.50066"
     inkscape:cy="101.14333"
     inkscape:window-x="1912"
     inkscape:window-y="-8"
     inkscape:window-maximized="1"
     inkscape:current-layer="g10" /><g
     id="g10"
     inkscape:groupmode="layer"
     inkscape:label="Vector Smart Object"
     transform="matrix(1.3333333,0,0,-1.3333333,0,202.28667)"><g
       id="g12"><g
         id="g14"
         clip-path="url(#clipPath18)"><g
           id="g20"
           transform="translate(63.3228,90.7261)"><path
             d="m 0,0 v -23.933 c -0.372,0.062 -10.051,2.634 -10.392,2.696 0,0.217 0.031,0.435 0.031,0.653 0,5.784 -4.753,10.511 -10.531,10.511 -4.286,0 -7.983,-2.581 -9.629,-6.251 -1.379,0.377 -5.407,1.796 -7.012,2.273 -10.64,3.163 -24.973,8.385 -25.79,13.611 V 0.088 0.119 C -61.827,8.28 -20.073,4.102 0,0 m 30.441,-5.073 c 2.361,-0.343 4.846,-0.928 7.549,-1.022 -0.282,-2.14 0.913,-3.125 4.063,-3.974 2.92,-0.787 1.299,-0.322 4.28,-0.985 0.498,0.404 0.808,1.119 1.057,2.114 0,0.063 -1.646,0.063 -1.957,0.373 -0.839,0.84 0.093,2.022 0.279,2.798 0.311,1.151 -0.746,1.307 1.087,2.147 1.646,0.746 1.324,2.455 2.939,2.89 3.579,1.155 6.292,-0.8 6.888,-3.378 0.603,-2.607 -0.849,-5.76 -3.304,-6.042 -0.652,-0.094 -0.496,-1.493 -0.341,-2.302 1.305,-0.217 5.534,-1.2 6.373,-1.169 1.104,0.021 1.958,1.134 2.604,2.126 0.609,0.933 1.474,1.075 2.071,0.922 1.321,-0.339 2.425,-2.473 4.236,-3.222 7.979,-3.097 18.209,-8.344 23.515,-12.417 3.162,-2.427 3.726,-4.564 2.647,-8.028 -0.903,-2.9 -2.918,-5.404 -5.392,-5.499 -6.368,-0.279 -15.167,0.695 -27.934,2.904 0.031,0.31 0.062,0.652 0.062,0.994 0,5.815 -4.722,10.542 -10.53,10.542 -5.126,0 -9.412,-3.7 -10.314,-8.552 -3.385,0.529 -6.74,1.12 -9.878,1.742 v 27.038"
             style="fill:#ed2d30;fill-opacity:1;fill-rule:evenodd;stroke:none"
             id="path22"
             inkscape:connector-curvature="0" /></g><g
           id="g24"
           transform="translate(37.2305,83.9268)"><path
             d="M 0,0 C 8.293,-1.741 17.985,-3.7 26.092,-5.348 V -4.01 C 17.24,-2.239 8.604,-0.341 0,1.772 Z"
             style="fill:#e31e25;fill-opacity:1;fill-rule:evenodd;stroke:none"
             id="path26"
             inkscape:connector-curvature="0" /></g><g
           id="g28"
           transform="translate(127.936,68.98)"><path
             d="m 0,0 c -7.588,2.145 -28.727,7.141 -48.083,11.357 v 1.921 C -26.096,8.464 -2.385,2.714 1.898,0.881 2.84,0.479 2.582,0.493 1.943,0.107 1.093,-0.406 0.467,-0.131 0,0"
             style="fill:#ffffff;fill-opacity:1;fill-rule:nonzero;stroke:none"
             id="path30"
             inkscape:connector-curvature="0" /></g><g
           id="g32"
           transform="translate(73.8716,81.2793)"><path
             d="m 0,0 c -10.808,2.478 -23.774,5.263 -35.702,7.6 -2.728,0.535 -5.772,0.926 -0.34,0.934 4.651,0.006 20.246,-3.061 36.102,-6.437 z"
             style="fill:#ffffff;fill-opacity:1;fill-rule:nonzero;stroke:none"
             id="path34"
             inkscape:connector-curvature="0" /></g><g
           id="g36"
           transform="translate(73.7612,76.377)"><path
             d="m 0,0 c -11.59,2.657 -37.003,8.01 -49.657,10.923 -1.01,0.232 -1.614,0.628 -0.302,0.63 4.651,0.007 34.163,-6.08 50.019,-9.456 z"
             style="fill:#ffffff;fill-opacity:1;fill-rule:nonzero;stroke:none"
             id="path38"
             inkscape:connector-curvature="0" /></g><g
           id="g40"
           transform="translate(138.4712,61.9102)"><path
             d="M 0,0 C -10.679,2.95 -37.02,8.896 -59.309,13.596 V 15.54 C -35.332,10.372 -6.691,3.794 2.312,0.888 3.286,0.574 2.995,0.5 2.356,0.114 1.506,-0.399 0.467,-0.129 0,0"
             style="fill:#ffffff;fill-opacity:1;fill-rule:nonzero;stroke:none"
             id="path42"
             inkscape:connector-curvature="0" /></g><g
           id="g44"
           transform="translate(26.9175,148.6074)"><path
             d="m 0,0 16.184,-32.589 c 1.336,0.995 2.733,1.959 4.193,2.892 2.237,1.43 4.598,2.767 7.114,3.949 3.479,1.617 7.113,2.893 10.871,3.639 l 2.921,0.59 v -96.958 l -6.99,2.581 -11.182,-23.508 c 1.739,-0.715 3.51,-1.4 5.311,-2.053 7.487,-2.581 15.314,-4.073 23.204,-4.073 7.89,0 15.718,1.492 23.204,4.073 1.802,0.653 3.572,1.338 5.312,2.053 l -11.183,23.508 -6.989,-2.581 v 96.958 l 2.92,-0.59 c 3.759,-0.746 7.393,-2.022 10.841,-3.639 2.516,-1.182 4.876,-2.519 7.144,-3.949 1.46,-0.933 2.858,-1.897 4.193,-2.892 L 103.252,0 Z"
             style="fill:#fefefe;fill-opacity:1;fill-rule:evenodd;stroke:none"
             id="path46"
             inkscape:connector-curvature="0" /></g><g
           id="g48"
           transform="translate(32.0425,145.4355)"><path
             d="m 0,0 12.239,-24.66 c 2.92,1.928 5.871,3.577 8.791,4.944 4.442,2.084 8.821,3.453 13.201,4.199 l 5.095,0.84 v -105.199 l -8.542,3.172 -8.48,-17.85 c 7.734,-2.923 15.904,-4.601 24.197,-4.601 8.294,0 16.463,1.678 24.198,4.601 l -8.511,17.85 -8.542,-3.172 v 105.199 l 5.125,-0.84 c 4.38,-0.746 8.76,-2.115 13.202,-4.199 2.92,-1.367 5.87,-3.016 8.79,-4.944 L 93.002,0 Z"
             style="fill:#37762b;fill-opacity:1;fill-rule:evenodd;stroke:none"
             id="path50"
             inkscape:connector-curvature="0" /></g><g
           id="g52"
           transform="translate(113.9551,63.9014)"><path
             d="m 0,0 c 4.97,0 9.008,-4.043 9.008,-9.018 0,-4.944 -4.038,-8.987 -9.008,-8.987 -4.939,0 -8.977,4.043 -8.977,8.987 C -8.977,-4.043 -4.939,0 0,0"
             style="fill:#e31e25;fill-opacity:1;fill-rule:evenodd;stroke:none"
             id="path54"
             inkscape:connector-curvature="0" /></g><g
           id="g56"
           transform="translate(22.9727,151.7153)"><path
             d="m 0,0 h 111.142 1.049 l -0.466,-0.939 -19.228,-38.746 -0.35,-0.704 -0.625,0.472 c -2.086,1.58 -4.195,3.095 -6.369,4.489 -2.175,1.395 -4.419,2.673 -6.777,3.777 -1.692,0.793 -3.388,1.474 -5.077,2.041 -1.436,0.482 -2.864,0.881 -4.278,1.196 v -88.722 l 4.898,1.819 0.56,0.208 0.255,-0.536 13.264,-27.862 0.291,-0.61 -0.622,-0.268 c -2.588,-1.117 -5.209,-2.163 -7.898,-3.097 v -0.001 c -2.676,-0.93 -5.394,-1.737 -8.18,-2.38 -2.63,-0.606 -5.306,-1.075 -8.019,-1.388 -2.635,-0.304 -5.304,-0.464 -7.999,-0.464 -2.693,0 -5.361,0.159 -7.998,0.464 -2.718,0.313 -5.404,0.782 -8.052,1.388 -2.785,0.643 -5.496,1.45 -8.163,2.38 -2.674,0.932 -5.288,1.978 -7.883,3.098 l -0.621,0.268 0.29,0.61 13.264,27.862 0.255,0.536 0.559,-0.208 4.9,-1.819 v 88.721 c -1.429,-0.315 -2.852,-0.712 -4.271,-1.189 -1.691,-0.568 -3.385,-1.25 -5.084,-2.047 -2.359,-1.104 -4.602,-2.382 -6.778,-3.777 -2.174,-1.394 -4.282,-2.909 -6.369,-4.489 l -0.625,-0.472 -0.35,0.704 L -0.583,-0.939 -1.049,0 Z"
             style="fill:#37762b;fill-opacity:1;fill-rule:evenodd;stroke:none"
             id="path58"
             inkscape:connector-curvature="0" /></g><g
           id="g60"
           transform="translate(26.9175,148.6074)"><path
             d="m 0,0 16.184,-32.589 c 1.336,0.995 2.733,1.959 4.193,2.892 2.237,1.43 4.598,2.768 7.114,3.949 3.479,1.617 7.113,2.893 10.871,3.639 l 2.921,0.59 v -96.958 l -6.99,2.581 -11.182,-23.508 c 1.739,-0.715 3.51,-1.4 5.311,-2.053 7.487,-2.581 15.314,-4.073 23.204,-4.073 7.89,0 15.718,1.492 23.204,4.073 1.802,0.653 3.572,1.338 5.312,2.053 l -11.183,23.508 -6.989,-2.581 v 96.958 l 2.92,-0.59 c 3.759,-0.746 7.393,-2.022 10.841,-3.639 2.516,-1.181 4.876,-2.519 7.144,-3.949 1.46,-0.933 2.858,-1.897 4.193,-2.892 L 103.252,0 Z"
             style="fill:#fefefe;fill-opacity:1;fill-rule:evenodd;stroke:none"
             id="path62"
             inkscape:connector-curvature="0" /></g><g
           id="g64"
           transform="translate(32.0425,145.4355)"><path
             d="m 0,0 12.239,-24.659 c 2.92,1.928 5.871,3.576 8.791,4.944 4.442,2.083 8.821,3.452 13.201,4.198 l 5.095,0.84 v -105.199 l -8.542,3.172 -8.48,-17.85 c 7.734,-2.923 15.904,-4.601 24.197,-4.601 8.294,0 16.463,1.678 24.198,4.601 l -8.511,17.85 -8.542,-3.172 v 105.199 l 5.125,-0.84 c 4.38,-0.746 8.76,-2.115 13.202,-4.198 2.92,-1.368 5.87,-3.016 8.79,-4.944 L 93.002,0 Z"
             style="fill:#37762b;fill-opacity:1;fill-rule:evenodd;stroke:none"
             id="path66"
             inkscape:connector-curvature="0" /></g><g
           id="g68"
           transform="translate(42.4287,79.0547)"><path
             d="m 0,0 c 4.939,0 8.977,-4.043 8.977,-8.987 0,-4.975 -4.038,-9.018 -8.977,-9.018 -4.97,0 -9.008,4.043 -9.008,9.018 C -9.008,-4.043 -4.97,0 0,0"
             style="fill:#ed2d30;fill-opacity:1;fill-rule:evenodd;stroke:none"
             id="path70"
             inkscape:connector-curvature="0" /></g><g
           id="g72"
           transform="translate(42.4292,75.7876)"><path
             d="m 0,0 c 3.131,0 5.714,-2.585 5.714,-5.72 0,-3.167 -2.583,-5.72 -5.714,-5.72 -3.164,0 -5.746,2.553 -5.746,5.72 C -5.746,-2.585 -3.164,0 0,0"
             style="fill:#fefefe;fill-opacity:1;fill-rule:evenodd;stroke:none"
             id="path74"
             inkscape:connector-curvature="0" /></g><g
           id="g76"
           transform="translate(42.4268,74.0107)"><path
             d="M 0,0 C 2.17,0 3.939,-1.771 3.939,-3.944 3.939,-6.117 2.17,-7.915 0,-7.915 c -2.198,0 -3.966,1.798 -3.966,3.971 C -3.966,-1.771 -2.198,0 0,0"
             style="fill:#ed2d30;fill-opacity:1;fill-rule:evenodd;stroke:none"
             id="path78"
             inkscape:connector-curvature="0" /></g><g
           id="g80"
           transform="translate(42.2314,45.2754)"><path
             d="m 0,0 h -7.455 c 2.143,-3.234 4.659,-6.22 7.455,-8.926 2.267,-2.207 4.753,-4.197 7.393,-5.97 L 7.424,0 Z m 0,-22.11 c -1.46,-0.84 -3.199,-2.271 -4.598,-4.136 -1.49,1.089 -2.92,2.239 -4.286,3.452 2.796,3.172 3.945,7.214 3.355,8.178 -1.025,0.591 -4.939,-0.839 -7.983,-3.7 -1.274,1.337 -2.486,2.736 -3.634,4.167 3.416,2.736 5.125,6.405 4.69,7.462 -0.994,0.654 -5.188,-0.062 -8.511,-2.239 -0.995,1.525 -1.957,3.111 -2.827,4.727 3.541,1.928 6.119,5.411 5.902,6.499 -0.901,0.809 -5.219,0.809 -8.76,-0.715 -0.715,1.679 -1.398,3.389 -1.988,5.162 3.883,1.306 7.052,4.136 6.958,5.411 -0.652,1.026 -4.908,1.71 -8.759,0.808 -0.405,1.773 -0.777,3.576 -1.057,5.38 4.163,0.653 7.549,2.892 7.797,4.105 -0.528,1.275 -4.597,2.58 -8.48,2.332 -0.063,1.337 -0.093,2.674 -0.093,4.011 v 1.524 c 3.545,-0.058 6.715,1.089 7.774,2.124 2.218,-0.773 4.44,-1.487 6.546,-2.126 0.616,-0.215 1.246,-0.433 1.894,-0.651 -0.031,-0.28 -0.031,-0.56 -0.031,-0.871 0,-8.302 1.957,-16.169 5.405,-23.135 H 0 9.164 L 21.091,17.506 V 9.608 L 13.046,1.585 V -13.652 L 4.349,-31.937 c -1.212,0.654 -2.423,1.337 -3.604,2.052 2.268,3.733 2.703,7.775 1.895,8.614 C 2.112,-21.146 1.118,-21.457 0,-22.11"
             style="fill:#dea749;fill-opacity:1;fill-rule:evenodd;stroke:none"
             id="path82"
             inkscape:connector-curvature="0" /></g><g
           id="g84"
           transform="translate(14.3857,96.8877)"><path
             d="m 0,0 c -0.14,0.082 -0.281,0.167 -0.421,0.255 0.621,1.742 1.304,3.452 2.05,5.1 3.634,-1.648 7.61,-1.772 8.79,-0.746 0.031,1.493 -2.329,4.509 -5.839,6.53 0.9,1.586 1.895,3.141 2.92,4.664 3.385,-2.332 7.237,-2.985 8.542,-2.239 0.373,1.431 -1.429,4.696 -4.66,7.401 1.181,1.399 2.423,2.768 3.697,4.074 2.92,-2.83 5.746,-3.421 7.051,-3.638 l 4.038,-8.178 C 23.901,10.828 21.851,8.216 20.049,5.417 h 7.102 0.695 8.511 v 12.999 c 1.833,1.15 3.696,2.176 5.622,3.079 V 3.738 l 6.958,-6.996 V -4.66 c -1.011,0.205 -2.07,0.409 -3.168,0.61 -1.517,0.278 -3.118,0.553 -4.784,0.821 l -2.982,3.018 z"
             style="fill:#dea749;fill-opacity:1;fill-rule:evenodd;stroke:none"
             id="path86"
             inkscape:connector-curvature="0" /></g><g
           id="g88"
           transform="translate(124.2754,52.0054)"><path
             d="m 0,0 c -0.278,-1.498 -2.732,-5.508 -5.816,-6.637 h 3.882 c -3.944,-6.033 -9.101,-11.196 -15.127,-15.145 l 0.031,15.176 h 2.175 c -2.982,1.43 -5.219,4.26 -5.809,7.618 l -2.485,2.519 c -1.056,0.186 -2.019,0.342 -2.951,0.497 -1.491,0.281 -2.951,0.56 -4.411,0.84 V 2.972 l 7.859,-7.899 v -15.081 l 5.964,-12.501 c 0.746,-0.249 2.671,-1.182 4.877,-5.07 1.584,0.934 3.137,1.898 4.659,2.923 -2.299,3.421 -3.013,7.619 -2.299,8.522 1.088,0.466 4.784,-1.401 7.456,-4.634 1.397,1.182 2.765,2.426 4.069,3.7 -2.92,2.985 -4.287,7.028 -3.728,7.961 0.932,0.685 4.97,-0.56 8.17,-3.234 1.18,1.399 2.298,2.83 3.386,4.322 -3.51,2.488 -5.498,6.127 -5.064,7.215 0.933,0.932 4.908,0.342 8.574,-1.804 0.931,1.586 1.801,3.203 2.609,4.882 C 11.89,-5.705 9.622,-2.657 9.839,-1.475 7.199,-1.071 2.796,-0.467 0,0"
             style="fill:#dea749;fill-opacity:1;fill-rule:evenodd;stroke:none"
             id="path90"
             inkscape:connector-curvature="0" /></g><g
           id="g92"
           transform="translate(101.7476,117.8843)"><path
             d="m 0,0 v -16.854 l -7.983,-7.93 v -5.958 l 0.207,-0.029 c 0.505,-0.074 0.993,-0.154 1.479,-0.236 l 10.242,10.173 h 19.911 c 2.649,-5.416 4.397,-11.383 5.041,-17.631 0.477,-0.466 0.981,-0.912 1.496,-1.126 3.051,-1.185 6.419,-2.676 9.715,-4.293 1.077,0.431 2.734,0.872 5.274,0.909 -0.03,1.835 -0.124,3.67 -0.279,5.473 -4.349,-0.404 -8.045,0.871 -8.542,2.052 0.124,1.368 3.355,3.514 7.641,4.291 -0.341,1.835 -0.745,3.639 -1.242,5.411 -4.101,-1.15 -8.17,-0.435 -8.76,0.529 -0.062,1.244 2.796,4.104 6.772,5.597 -0.652,1.711 -1.367,3.421 -2.144,5.069 -3.851,-1.804 -7.983,-1.804 -8.791,-0.933 -0.217,1.12 2.02,4.447 5.716,6.654 -0.932,1.586 -1.926,3.11 -2.982,4.634 -3.354,-2.332 -7.362,-3.327 -8.418,-2.519 -0.435,1.399 1.336,4.882 4.411,7.588 C 27.583,2.27 26.341,3.607 25.037,4.913 22.086,1.928 20.315,1.648 19.352,1.493 l -4.597,-9.267 c 2.174,-2.27 4.162,-4.758 5.87,-7.401 H 5.623 V -3.234 C 5.56,-3.172 5.467,-3.141 5.405,-3.109 3.634,-1.959 1.833,-0.933 0,0"
             style="fill:#dea749;fill-opacity:1;fill-rule:evenodd;stroke:none"
             id="path94"
             inkscape:connector-curvature="0" /></g><g
           id="g96"
           transform="translate(19.2979,78.0952)"><path
             d="M 0,0 C 0.118,1.463 0.289,2.911 0.511,4.342 L 1.781,4.033 C 1.556,2.564 1.386,1.078 1.273,-0.424 0.85,-0.285 0.425,-0.144 0,0 m 7.42,-2.335 c -0.482,0.148 -0.894,0.274 -1.194,0.364 l -0.091,0.027 c 0.086,1.62 0.246,3.22 0.475,4.798 L 7.882,2.542 C 7.653,0.939 7.498,-0.688 7.42,-2.335 M 4.34,-1.4 C 3.917,-1.27 3.49,-1.137 3.06,-1 3.165,0.551 3.333,2.085 3.56,3.599 L 4.831,3.29 C 4.603,1.746 4.437,0.182 4.34,-1.4"
             style="fill:#ffffff;fill-opacity:1;fill-rule:nonzero;stroke:none"
             id="path98"
             inkscape:connector-curvature="0" /></g><g
           id="g100"
           transform="translate(113.9858,63.9009)"><path
             d="m 0,0 c 4.939,0 8.978,-4.042 8.978,-8.986 0,-4.976 -4.039,-9.018 -8.978,-9.018 -4.97,0 -9.008,4.042 -9.008,9.018 C -9.008,-4.042 -4.97,0 0,0"
             style="fill:#ed2d30;fill-opacity:1;fill-rule:evenodd;stroke:none"
             id="path102"
             inkscape:connector-curvature="0" /></g><g
           id="g104"
           transform="translate(113.9863,60.6343)"><path
             d="m 0,0 c 3.132,0 5.714,-2.585 5.714,-5.72 0,-3.167 -2.582,-5.719 -5.714,-5.719 -3.163,0 -5.746,2.552 -5.746,5.719 C -5.746,-2.585 -3.163,0 0,0"
             style="fill:#fefefe;fill-opacity:1;fill-rule:evenodd;stroke:none"
             id="path106"
             inkscape:connector-curvature="0" /></g><g
           id="g108"
           transform="translate(113.9839,58.8569)"><path
             d="m 0,0 c 2.171,0 3.94,-1.771 3.94,-3.943 0,-2.174 -1.769,-3.971 -3.94,-3.971 -2.198,0 -3.966,1.797 -3.966,3.971 C -3.966,-1.771 -2.198,0 0,0"
             style="fill:#ed2d30;fill-opacity:1;fill-rule:evenodd;stroke:none"
             id="path110"
             inkscape:connector-curvature="0" /></g></g></g></g></svg>